<svg xmlns="http://www.w3.org/2000/svg" width="382" height="216" viewBox="0 0 382 216">
    <g fill="none" fill-rule="evenodd">
        <g fill="#FBB195" fill-rule="nonzero" stroke="#FBB195" stroke-width="7">
            <g>
                <path d="M104.176 63.787c-11.474 0-20.776 9.302-20.776 20.777 0 11.474 9.302 20.776 20.776 20.776 80.322 0 145.436 65.114 145.436 145.435 0 80.322-65.114 145.436-145.436 145.436-11.474 0-20.776 9.302-20.776 20.776 0 11.475 9.302 20.777 20.776 20.777 103.271 0 186.989-83.718 186.989-186.989 0-103.27-83.718-186.988-186.989-186.988z" transform="translate(-892.000000, -284.000000) translate(896.000000, 141.000000) translate(187.282300, 250.775500) rotate(-270.000000) translate(-187.282300, -250.775500)"/>
            </g>
        </g>
    </g>
</svg>
