<svg xmlns="http://www.w3.org/2000/svg" width="13" height="13" viewBox="0 0 13 13">
    <g fill="none" fill-rule="evenodd">
        <g fill="#3F3F3F" fill-rule="nonzero">
            <g>
                <g>
                    <path d="M17.466 21.93c1.226.003 2.416-.41 3.377-1.17l3.048 3.05c.164.164.403.228.628.168.224-.06.399-.235.459-.46.06-.224-.004-.463-.168-.627l-3.05-3.048c1.574-2.002 1.557-4.825-.041-6.807-1.598-1.983-4.353-2.599-6.643-1.486-2.29 1.113-3.507 3.66-2.936 6.142.571 2.481 2.78 4.239 5.326 4.238zm-2.947-8.412c1.192-1.193 2.985-1.55 4.542-.904 1.558.645 2.573 2.164 2.573 3.85s-1.015 3.206-2.573 3.851c-1.557.645-3.35.289-4.542-.904-.788-.778-1.232-1.84-1.232-2.947s.444-2.168 1.232-2.946z" transform="translate(-1007.000000, -27.000000) translate(995.000000, 16.000000)"/>
                </g>
            </g>
        </g>
    </g>
</svg>
